<svg width="600" height="1000" viewBox="0 0 600 1000" xmlns="http://www.w3.org/2000/svg">
  <defs>
    <style>
      .box { fill: #0a0a0a; stroke: #00f2ea; stroke-width: 2; filter: url(#glow); }
      .text { fill: #ffffff; font-family: 'Poppins', sans-serif; font-size: 16px; font-weight: 600; text-anchor: middle; }
      .sub-text { fill: #94a3b8; font-size: 12px; font-family: 'Poppins', sans-serif; text-anchor: middle; }
      .arrow { stroke: #ff0050; stroke-width: 2; fill: #ff0050; }
      .arrow-reverse { stroke: #00f2ea; stroke-width: 2; fill: #00f2ea; stroke-dasharray: 4; }
      .title { fill: #00f2ea; font-family: 'Outfit', sans-serif; font-size: 24px; font-weight: 700; text-anchor: middle; }
    </style>
    <filter id="glow">
      <feGaussianBlur stdDeviation="3" result="coloredBlur"/>
      <feMerge>
        <feMergeNode in="coloredBlur"/><feMergeNode in="SourceGraphic"/>
      </feMerge>
    </filter>
    <marker id="arrowhead" markerWidth="10" markerHeight="7" refX="0" refY="3.5" orient="auto">
      <polygon points="0 0, 10 3.5, 0 7" fill="#ff0050" />
    </marker>
    <marker id="arrowhead-cyan" markerWidth="10" markerHeight="7" refX="0" refY="3.5" orient="auto">
      <polygon points="0 0, 10 3.5, 0 7" fill="#00f2ea" />
    </marker>
  </defs>

  <rect width="100%" height="100%" fill="#050505" />
  <text x="300" y="50" class="title">L0gVigil System Architecture</text>

  <!-- 1. Log Source -->
  <rect x="150" y="100" width="300" height="60" rx="10" class="box" />
  <text x="300" y="130" class="text">/var/log/auth.log</text>
  <text x="300" y="148" class="sub-text">SSH Auth Log Stream</text>

  <!-- Arrow 1 -->
  <line x1="300" y1="160" x2="300" y2="210" class="arrow" marker-end="url(#arrowhead)" />

  <!-- 2. LogTailer -->
  <rect x="150" y="220" width="300" height="60" rx="10" class="box" />
  <text x="300" y="250" class="text">LogTailer Engine</text>
  <text x="300" y="268" class="sub-text">Real-time File Monitor</text>

  <!-- Arrow 2 -->
  <line x1="300" y1="280" x2="300" y2="330" class="arrow" marker-end="url(#arrowhead)" />

  <!-- 3. Regex Engine -->
  <rect x="150" y="340" width="300" height="60" rx="10" class="box" />
  <text x="300" y="370" class="text">Regex Engine</text>
  <text x="300" y="388" class="sub-text">Extract IP, User, &amp; Port</text>

  <!-- Arrow 3 -->
  <line x1="300" y1="400" x2="300" y2="450" class="arrow" marker-end="url(#arrowhead)" />

  <!-- 4. Detection Logic -->
  <rect x="150" y="460" width="300" height="60" rx="10" class="box" />
  <text x="300" y="490" class="text">Sliding Window Logic</text>
  <text x="300" y="508" class="sub-text">Attack Threshold Detection</text>

  <!-- Arrow 4 (Splits) -->
  <path d="M300 520 L300 560 L150 560 L150 610" fill="none" class="arrow" marker-end="url(#arrowhead)" />
  <path d="M300 560 L450 560 L450 610" fill="none" class="arrow" marker-end="url(#arrowhead)" />

  <!-- 5. Action Workers -->
  <!-- Firewall -->
  <rect x="50" y="620" width="200" height="80" rx="10" class="box" style="stroke:#ff0050" />
  <text x="150" y="655" class="text">IP Tables / Firewall</text>
  <text x="150" y="675" class="sub-text">Automatic IP Blocking</text>

  <!-- Telegram -->
  <rect x="350" y="620" width="200" height="80" rx="10" class="box" />
  <text x="450" y="655" class="text">Telegram Worker</text>
  <text x="450" y="675" class="sub-text">Instant Security Alerts</text>

  <!-- 6. Storage (Central Hub) -->
  <line x1="300" y1="520" x2="300" y2="735" class="arrow" stroke-dasharray="5,5" marker-end="url(#arrowhead)" />
  <rect x="200" y="740" width="200" height="60" rx="10" class="box" style="stroke:#94a3b8" />
  <text x="300" y="770" class="text">SQLite / JSON DB</text>
  <text x="300" y="788" class="sub-text">Persistent Attack Logs</text>

  <!-- 7. API Backend -->
  <line x1="300" y1="800" x2="300" y2="835" class="arrow" marker-end="url(#arrowhead)" />
  <rect x="150" y="840" width="300" height="60" rx="10" class="box" />
  <text x="300" y="870" class="text">FastAPI Backend</text>
  <text x="300" y="888" class="sub-text">Data Analysis &amp; REST Endpoints</text>

  <!-- 8. React Dashboard -->
  <line x1="300" y1="900" x2="300" y2="935" class="arrow" marker-end="url(#arrowhead)" />
  <rect x="100" y="940" width="400" height="45" rx="20" class="box" style="stroke-width:3" />
  <text x="300" y="968" class="text">React Dashboard (Live UI)</text>
  
  <!-- Detailed Labels for Dashboard Features -->
  <g opacity="0.7">
    <text x="120" y="920" class="sub-text" text-anchor="start">● Geo-IP Tracking</text>
    <text x="340" y="920" class="sub-text" text-anchor="start">● Unique IP Stats</text>
    <text x="480" y="910" class="sub-text" text-anchor="end">● Manual Unblock</text>
  </g>

  <!-- Reverse Control Flow (Unblock Action) -->
  <path d="M100 960 Q20 960 20 780 L20 660 L45 660" fill="none" class="arrow-reverse" marker-end="url(#arrowhead-cyan)" />
  <text x="30" y="820" class="sub-text" transform="rotate(-90, 30, 820)" style="fill:#00f2ea">Unblock Command Flow</text>

</svg>